<svg width="18" height="18" viewBox="0 0 18 18" fill="none" xmlns="http://www.w3.org/2000/svg">
<path d="M11.8927 10.8319H10.607V8.88565C10.607 8.46538 10.3048 8.0821 9.887 8.0403C9.40647 7.99208 8.99986 8.36896 8.99986 8.83984V12.4398C8.99986 12.6166 8.85843 12.7612 8.68164 12.7612C8.50164 12.7612 8.35701 12.6166 8.36021 12.4398L8.357 10.8648C7.62736 11.0095 7.0745 11.662 7.0745 12.4398L7.07129 14.1434C7.07129 14.6255 7.232 15.1044 7.52129 15.4934L7.71414 15.7505C7.92306 16.0285 8.03557 16.3668 8.03557 16.7148V17.3576H12.8571V16.7694C12.8571 16.5219 12.9149 16.2744 13.0274 16.0526L13.2653 15.5729C13.4196 15.2627 13.4999 14.9204 13.4999 14.5741V12.4398C13.4999 11.5519 12.7807 10.8327 11.8928 10.8327L11.8927 10.8319Z" fill="#2D2D2D"/>
<path d="M16.7142 0.642578H1.28571C0.576963 0.642578 0 1.21954 0 1.92828V2.57114H11.4381C11.8165 2.57114 12.1733 2.71899 12.4409 2.98658C12.5872 3.13283 12.7824 3.21399 12.9897 3.21399H17.9993V1.92828C17.9993 1.21954 17.4223 0.642578 16.7136 0.642578H16.7142ZM13.6606 2.24971C13.483 2.24971 13.3392 2.10587 13.3392 1.92828C13.3392 1.7507 13.483 1.60686 13.6606 1.60686C13.8382 1.60686 13.982 1.7507 13.982 1.92828C13.982 2.10587 13.8382 2.24971 13.6606 2.24971ZM14.9463 2.24971C14.7687 2.24971 14.6249 2.10587 14.6249 1.92828C14.6249 1.7507 14.7687 1.60686 14.9463 1.60686C15.1239 1.60686 15.2677 1.7507 15.2677 1.92828C15.2677 2.10587 15.1239 2.24971 14.9463 2.24971ZM16.232 2.24971C16.0544 2.24971 15.9106 2.10587 15.9106 1.92828C15.9106 1.7507 16.0544 1.60686 16.232 1.60686C16.4096 1.60686 16.5534 1.7507 16.5534 1.92828C16.5534 2.10587 16.4096 2.24971 16.232 2.24971Z" fill="#2D2D2D"/>
<path d="M9.80369 7.39284C9.85191 7.39284 9.90012 7.39606 9.95155 7.39927C10.6105 7.46677 11.144 8.00999 11.234 8.67856H12.5358C13.0662 8.67856 13.5001 8.24463 13.5001 7.71428C13.5001 7.18393 13.0662 6.75 12.5358 6.75H7.39299C6.86264 6.75 6.42871 7.18393 6.42871 7.71428C6.42871 8.24463 6.86264 8.67856 7.39299 8.67856H8.36692C8.44727 7.95536 9.06119 7.39284 9.80369 7.39284Z" fill="#2D2D2D"/>
<path d="M11.9859 3.44209C11.8413 3.29423 11.6452 3.21387 11.4395 3.21387H0V12.5351C0 13.2455 0.575359 13.8208 1.28571 13.8208H6.42853L6.43175 12.4387C6.40603 11.3555 7.28031 10.3495 8.3571 10.2145V9.32095H7.39282C6.50568 9.32095 5.78568 8.60096 5.78568 7.71382C5.78568 6.82668 6.50568 6.10669 7.39282 6.10669H12.5356C13.4228 6.10669 14.1428 6.82668 14.1428 7.71382C14.1428 8.60096 13.4228 9.32095 12.5356 9.32095H11.2499V10.1888H11.8928C13.1335 10.1888 14.1429 11.1981 14.1429 12.4389V13.821H16.7143C17.4246 13.821 18 13.2457 18 12.5353V3.85672H12.989C12.613 3.85672 12.2562 3.70886 11.9862 3.44209H11.9859ZM2.89278 7.39239H3.53563C4.06758 7.39239 4.49991 7.82472 4.49991 8.35667C4.49991 8.88863 4.06758 9.32095 3.53563 9.32095V9.64238C3.53563 9.81997 3.39179 9.96381 3.2142 9.96381C3.03662 9.96381 2.89278 9.81997 2.89278 9.64238V9.32095H2.24992C2.07234 9.32095 1.9285 9.17711 1.9285 8.99953C1.9285 8.82194 2.07234 8.6781 2.24992 8.6781H3.53563C3.71322 8.6781 3.85706 8.53426 3.85706 8.35667C3.85706 8.17909 3.71322 8.03525 3.53563 8.03525H2.89278C2.36082 8.03525 1.9285 7.60292 1.9285 7.07097C1.9285 6.53901 2.36082 6.10669 2.89278 6.10669V5.78526C2.89278 5.60767 3.03662 5.46383 3.2142 5.46383C3.39179 5.46383 3.53563 5.60767 3.53563 5.78526V6.10669H4.17848C4.35607 6.10669 4.49991 6.25053 4.49991 6.42811C4.49991 6.6057 4.35607 6.74954 4.17848 6.74954H2.89278C2.71519 6.74954 2.57135 6.89338 2.57135 7.07097C2.57135 7.24855 2.71519 7.39239 2.89278 7.39239Z" fill="#2D2D2D"/>
</svg>
