<svg width="20" height="20" viewBox="0 0 20 20" fill="none" xmlns="http://www.w3.org/2000/svg">
<path d="M2.89474 16.1579V2.89474V7.13421V6.68421V16.1579ZM4.78947 10.4737H10.0237C10.0553 10.1263 10.1342 9.79474 10.2605 9.47895C10.3868 9.16316 10.5447 8.86316 10.7342 8.57895H4.78947V10.4737ZM4.78947 14.2632H8.50789C8.77632 13.9474 9.08421 13.6908 9.43158 13.4934C9.77895 13.2961 10.1421 13.1342 10.5211 13.0079C10.4579 12.9132 10.4026 12.8105 10.3553 12.7C10.3079 12.5895 10.2684 12.4789 10.2368 12.3684H4.78947V14.2632ZM4.78947 6.68421H14.2632V4.78947H4.78947V6.68421ZM2.89474 18.0526C2.37368 18.0526 1.92763 17.8671 1.55658 17.4961C1.18553 17.125 1 16.6789 1 16.1579V2.89474C1 2.37368 1.18553 1.92763 1.55658 1.55658C1.92763 1.18553 2.37368 1 2.89474 1H16.1579C16.6789 1 17.125 1.18553 17.4961 1.55658C17.8671 1.92763 18.0526 2.37368 18.0526 2.89474V9.00526C17.8316 8.59474 17.5632 8.23158 17.2474 7.91579C16.9316 7.6 16.5684 7.33947 16.1579 7.13421V2.89474H2.89474V16.1579H7.67895C7.66316 16.2526 7.65132 16.3474 7.64342 16.4421C7.63553 16.5368 7.63158 16.6316 7.63158 16.7263V18.0526H2.89474ZM14.2632 13.3158C13.6 13.3158 13.0395 13.0868 12.5816 12.6289C12.1237 12.1711 11.8947 11.6105 11.8947 10.9474C11.8947 10.2842 12.1237 9.72368 12.5816 9.26579C13.0395 8.80789 13.6 8.57895 14.2632 8.57895C14.9263 8.57895 15.4868 8.80789 15.9447 9.26579C16.4026 9.72368 16.6316 10.2842 16.6316 10.9474C16.6316 11.6105 16.4026 12.1711 15.9447 12.6289C15.4868 13.0868 14.9263 13.3158 14.2632 13.3158ZM9.52632 18.0526V16.7263C9.52632 16.3474 9.625 15.9961 9.82237 15.6724C10.0197 15.3487 10.3 15.1158 10.6632 14.9737C11.2316 14.7368 11.8197 14.5592 12.4276 14.4408C13.0355 14.3224 13.6474 14.2632 14.2632 14.2632C14.8789 14.2632 15.4908 14.3224 16.0987 14.4408C16.7066 14.5592 17.2947 14.7368 17.8632 14.9737C18.2263 15.1158 18.5066 15.3487 18.7039 15.6724C18.9013 15.9961 19 16.3474 19 16.7263V18.0526H9.52632Z" fill="#2D2D2D"/>
</svg>
