<svg width="16" height="22" viewBox="0 0 16 22" fill="none" xmlns="http://www.w3.org/2000/svg">
<path d="M6.5 14H9.5L8.925 10.775C9.25833 10.6083 9.52083 10.3667 9.7125 10.05C9.90417 9.73333 10 9.38333 10 9C10 8.45 9.80417 7.97917 9.4125 7.5875C9.02083 7.19583 8.55 7 8 7C7.45 7 6.97917 7.19583 6.5875 7.5875C6.19583 7.97917 6 8.45 6 9C6 9.38333 6.09583 9.73333 6.2875 10.05C6.47917 10.3667 6.74167 10.6083 7.075 10.775L6.5 14ZM8 21C5.68333 20.4167 3.77083 19.0875 2.2625 17.0125C0.754167 14.9375 0 12.6333 0 10.1V4L8 1L16 4V10.1C16 12.6333 15.2458 14.9375 13.7375 17.0125C12.2292 19.0875 10.3167 20.4167 8 21ZM8 18.9C9.73333 18.35 11.1667 17.25 12.3 15.6C13.4333 13.95 14 12.1167 14 10.1V5.375L8 3.125L2 5.375V10.1C2 12.1167 2.56667 13.95 3.7 15.6C4.83333 17.25 6.26667 18.35 8 18.9Z" fill="#2D2D2D"/>
</svg>
