<svg width="217" height="109" viewBox="0 0 217 109" fill="none" xmlns="http://www.w3.org/2000/svg">
<path d="M21.0879 66.0255V39.36L21.6227 43.1039L0 12.5417H9.9327L26.4363 36.2274L24.5261 35.9982L39.4252 12.5417H48.8995L28.1936 43.9444L29.3397 38.7488V66.0255H21.0879Z" fill="white"/>
<path d="M57.8815 43.2939C57.4413 39.3323 57.0326 35.2451 56.6553 31.032C56.3409 26.7561 56.0893 22.543 55.9007 18.3928C55.7121 14.2427 55.6177 10.3126 55.6177 6.60255V0H65.8045V6.60255C65.8045 10.5012 65.7102 14.5885 65.5216 18.8644C65.3329 23.1404 65.05 27.3849 64.6727 31.5979C64.3583 35.7481 63.981 39.6468 63.5408 43.2939H57.8815ZM60.4282 67.0631C58.3531 67.0631 56.7496 66.4657 55.6177 65.2709C54.4859 64.0133 53.9199 62.2526 53.9199 59.9889C53.9199 57.9138 54.5173 56.216 55.7121 54.8955C56.9068 53.575 58.4788 52.9147 60.4282 52.9147C62.5033 52.9147 64.1067 53.5436 65.2386 54.8012C66.3705 55.9959 66.9364 57.7252 66.9364 59.9889C66.9364 62.064 66.339 63.7618 65.1443 65.0823C63.9495 66.4028 62.3775 67.0631 60.4282 67.0631Z" fill="url(#paint0_linear_1308_20)"/>
<path d="M96.1869 66.7896C92.061 66.7896 88.3936 65.9237 85.1846 64.1918C82.0265 62.409 79.5306 59.9895 77.6968 56.9333C75.914 53.8771 75.0226 50.3624 75.0226 46.3893C75.0226 43.2312 75.532 40.3533 76.5507 37.7555C77.5695 35.1577 78.9703 32.9165 80.753 31.0319C82.5868 29.0962 84.7516 27.6191 87.2475 26.6003C89.7943 25.5307 92.5449 24.9958 95.4993 24.9958C98.0971 24.9958 100.517 25.5052 102.758 26.5239C104.999 27.4917 106.935 28.8416 108.565 30.5734C110.246 32.3053 111.519 34.3682 112.385 36.7623C113.302 39.1054 113.735 41.6777 113.684 44.4792L113.607 47.841H80.8294L79.0721 41.5758H106.807L105.661 42.8747V41.041C105.508 39.36 104.948 37.8574 103.98 36.533C103.012 35.2087 101.79 34.1645 100.313 33.4004C98.8356 32.6364 97.2311 32.2543 95.4993 32.2543C92.7487 32.2543 90.4311 32.7892 88.5464 33.8588C86.6617 34.8776 85.2355 36.4057 84.2677 38.4432C83.2999 40.4297 82.816 42.9002 82.816 45.8545C82.816 48.656 83.4018 51.101 84.5733 53.1894C85.7449 55.2269 87.4003 56.8059 89.5397 57.9265C91.679 59.0472 94.1495 59.6075 96.951 59.6075C98.9375 59.6075 100.771 59.2764 102.452 58.6142C104.184 57.952 106.043 56.755 108.03 55.0231L112.003 60.6007C110.78 61.8232 109.278 62.8929 107.495 63.8098C105.763 64.7266 103.904 65.4652 101.917 66.0255C99.9817 66.5349 98.0716 66.7896 96.1869 66.7896Z" fill="white"/>
<path d="M122.389 66.0255V9.48553H130.259V66.0255H122.389Z" fill="white"/>
<path d="M157.399 66.7896C153.732 66.7896 150.446 65.8982 147.543 64.1154C144.69 62.2817 142.424 59.8112 140.743 56.7041C139.062 53.546 138.221 49.9549 138.221 45.9309C138.221 41.9069 139.036 38.3413 140.666 35.2341C142.347 32.0761 144.614 29.6056 147.466 27.8228C150.319 25.9891 153.553 25.0722 157.17 25.0722C159.156 25.0722 161.066 25.4033 162.9 26.0655C164.785 26.6767 166.466 27.5427 167.943 28.6633C169.42 29.733 170.566 30.93 171.381 32.2543C172.247 33.5278 172.68 34.8267 172.68 36.151L170.388 36.3038V9.48553H178.258V66.0255H170.388V56.4748H171.916C171.916 57.6973 171.509 58.9198 170.694 60.1423C169.879 61.3139 168.783 62.409 167.408 63.4277C166.084 64.4465 164.53 65.2615 162.747 65.8727C161.016 66.484 159.233 66.7896 157.399 66.7896ZM158.469 59.9895C160.863 59.9895 162.977 59.3783 164.81 58.1558C166.644 56.9333 168.07 55.2778 169.089 53.1894C170.159 51.0501 170.694 48.6306 170.694 45.9309C170.694 43.2312 170.159 40.8372 169.089 38.7488C168.07 36.6094 166.644 34.9285 164.81 33.706C162.977 32.4836 160.863 31.8723 158.469 31.8723C156.075 31.8723 153.961 32.4836 152.127 33.706C150.293 34.9285 148.842 36.6094 147.772 38.7488C146.753 40.8372 146.244 43.2312 146.244 45.9309C146.244 48.6306 146.753 51.0501 147.772 53.1894C148.842 55.2778 150.293 56.9333 152.127 58.1558C153.961 59.3783 156.075 59.9895 158.469 59.9895Z" fill="white"/>
<path d="M202.462 66.7896C199.1 66.7896 196.069 66.2038 193.37 65.0322C190.67 63.8607 188.429 62.1288 186.646 59.8367L191.995 55.2524C193.523 57.0352 195.178 58.334 196.961 59.149C198.795 59.9131 200.858 60.2951 203.15 60.2951C204.067 60.2951 204.907 60.1932 205.671 59.9895C206.486 59.7348 207.174 59.3783 207.734 58.9198C208.345 58.4614 208.804 57.9266 209.109 57.3153C209.415 56.6531 209.568 55.94 209.568 55.176C209.568 53.8516 209.084 52.7819 208.116 51.9669C207.607 51.6104 206.792 51.2283 205.671 50.8208C204.601 50.3624 203.201 49.904 201.469 49.4456C198.514 48.6815 196.095 47.8156 194.21 46.8478C192.326 45.88 190.874 44.7848 189.855 43.5623C189.091 42.5945 188.531 41.5503 188.174 40.4297C187.818 39.2582 187.639 37.9847 187.639 36.6094C187.639 34.9285 187.996 33.4004 188.709 32.0251C189.473 30.5989 190.492 29.3764 191.765 28.3577C193.09 27.288 194.618 26.473 196.35 25.9127C198.132 25.3524 200.017 25.0722 202.004 25.0722C203.888 25.0722 205.747 25.3269 207.581 25.8363C209.466 26.3457 211.198 27.0842 212.777 28.052C214.356 29.0198 215.68 30.1659 216.75 31.4903L212.242 36.4566C211.274 35.4888 210.204 34.6484 209.033 33.9353C207.912 33.1712 206.766 32.5854 205.595 32.1779C204.423 31.7704 203.353 31.5667 202.386 31.5667C201.316 31.5667 200.348 31.6686 199.482 31.8723C198.616 32.0761 197.878 32.3817 197.266 32.7892C196.706 33.1967 196.273 33.706 195.968 34.3173C195.662 34.9285 195.509 35.6162 195.509 36.3802C195.56 37.0424 195.713 37.6791 195.968 38.2904C196.273 38.8507 196.681 39.3346 197.19 39.7421C197.75 40.1496 198.591 40.5825 199.711 41.041C200.832 41.4994 202.258 41.9324 203.99 42.3399C206.537 43.002 208.625 43.7406 210.255 44.5556C211.936 45.3197 213.261 46.2111 214.228 47.2298C215.247 48.1976 215.96 49.3182 216.368 50.5916C216.775 51.8651 216.979 53.2913 216.979 54.8703C216.979 57.1625 216.317 59.2254 214.993 61.0592C213.719 62.842 211.987 64.2427 209.797 65.2615C207.607 66.2802 205.162 66.7896 202.462 66.7896Z" fill="white"/>
<path d="M27.8034 87.5663C28.3582 86.801 29.1139 86.1792 30.0705 85.7009C31.0462 85.2035 32.1272 84.9548 33.3133 84.9548C34.71 84.9548 35.9727 85.2896 37.1015 85.9592C38.2302 86.6288 39.1199 87.5854 39.7703 88.829C40.4208 90.0534 40.7461 91.4596 40.7461 93.0475C40.7461 94.6355 40.4208 96.0608 39.7703 97.3235C39.1199 98.5671 38.2207 99.5428 37.0728 100.251C35.944 100.939 34.6908 101.284 33.3133 101.284C32.0889 101.284 30.9984 101.045 30.0418 100.566C29.1043 100.088 28.3582 99.4758 27.8034 98.7297V101.026H24.5318V79.7892H27.8034V87.5663ZM37.4171 93.0475C37.4171 91.957 37.1875 91.0196 36.7284 90.2352C36.2883 89.4316 35.6953 88.829 34.9491 88.4272C34.2221 88.0063 33.4377 87.7959 32.5959 87.7959C31.7732 87.7959 30.9888 88.0063 30.2427 88.4272C29.5157 88.8481 28.9226 89.4603 28.4634 90.2639C28.0234 91.0674 27.8034 92.0144 27.8034 93.1049C27.8034 94.1955 28.0234 95.152 28.4634 95.9747C28.9226 96.7783 29.5157 97.3905 30.2427 97.8114C30.9888 98.2323 31.7732 98.4427 32.5959 98.4427C33.4377 98.4427 34.2221 98.2323 34.9491 97.8114C35.6953 97.3713 36.2883 96.74 36.7284 95.9173C37.1875 95.0947 37.4171 94.1381 37.4171 93.0475Z" fill="white"/>
<path d="M47.2528 87.5089C47.7311 86.7053 48.3625 86.0836 49.1469 85.6435C49.9504 85.1844 50.8974 84.9548 51.988 84.9548V88.3411H51.1557C49.8739 88.3411 48.8982 88.6664 48.2286 89.3168C47.5781 89.9673 47.2528 91.0961 47.2528 92.7032V101.026H43.9813V85.2131H47.2528V87.5089Z" fill="white"/>
<path d="M56.6596 83.1181C56.0666 83.1181 55.5691 82.9172 55.1674 82.5155C54.7656 82.1137 54.5647 81.6163 54.5647 81.0232C54.5647 80.4301 54.7656 79.9327 55.1674 79.5309C55.5691 79.1291 56.0666 78.9282 56.6596 78.9282C57.2336 78.9282 57.7215 79.1291 58.1232 79.5309C58.525 79.9327 58.7259 80.4301 58.7259 81.0232C58.7259 81.6163 58.525 82.1137 58.1232 82.5155C57.7215 82.9172 57.2336 83.1181 56.6596 83.1181ZM58.2667 85.2131V101.026H54.9952V85.2131H58.2667Z" fill="white"/>
<path d="M70.5399 84.9548C71.7835 84.9548 72.8932 85.2131 73.8689 85.7296C74.8637 86.2462 75.6386 87.0114 76.1934 88.0254C76.7482 89.0394 77.0256 90.2639 77.0256 91.6987V101.026H73.7828V92.1866C73.7828 90.7709 73.4289 89.6899 72.721 88.9438C72.0131 88.1785 71.0469 87.7959 69.8225 87.7959C68.5981 87.7959 67.6223 88.1785 66.8953 88.9438C66.1875 89.6899 65.8335 90.7709 65.8335 92.1866V101.026H62.562V85.2131H65.8335V87.021C66.3692 86.3705 67.0484 85.8635 67.8711 85.5C68.7129 85.1365 69.6025 84.9548 70.5399 84.9548Z" fill="white"/>
<path d="M87.5696 84.9548C88.794 84.9548 89.875 85.2035 90.8124 85.7009C91.769 86.1792 92.5152 86.7819 93.0509 87.5089V85.2131H96.3511V101.284C96.3511 102.738 96.045 104.029 95.4328 105.158C94.8206 106.306 93.9309 107.205 92.7639 107.856C91.616 108.506 90.2385 108.831 88.6314 108.831C86.4887 108.831 84.7094 108.324 83.2936 107.31C81.8779 106.315 81.0743 104.957 80.883 103.235H84.1259C84.3746 104.058 84.9007 104.718 85.7042 105.215C86.5269 105.732 87.5026 105.99 88.6314 105.99C89.9515 105.99 91.0133 105.588 91.8169 104.785C92.6395 103.981 93.0509 102.814 93.0509 101.284V98.6436C92.496 99.3897 91.7403 100.021 90.7837 100.538C89.8463 101.035 88.7749 101.284 87.5696 101.284C86.1921 101.284 84.9294 100.939 83.7815 100.251C82.6527 99.5428 81.7535 98.5671 81.0839 97.3235C80.4334 96.0608 80.1082 94.6355 80.1082 93.0475C80.1082 91.4596 80.4334 90.0534 81.0839 88.829C81.7535 87.6045 82.6527 86.6575 83.7815 85.9879C84.9294 85.2991 86.1921 84.9548 87.5696 84.9548ZM93.0509 93.1049C93.0509 92.0144 92.8213 91.0674 92.3621 90.2639C91.9221 89.4603 91.3386 88.8481 90.6116 88.4272C89.8845 88.0063 89.1001 87.7959 88.2583 87.7959C87.4165 87.7959 86.6321 88.0063 85.9051 88.4272C85.1781 88.829 84.585 89.4316 84.1259 90.2352C83.6858 91.0196 83.4658 91.957 83.4658 93.0475C83.4658 94.1381 83.6858 95.0947 84.1259 95.9173C84.585 96.74 85.1781 97.3713 85.9051 97.8114C86.6513 98.2323 87.4357 98.4427 88.2583 98.4427C89.1001 98.4427 89.8845 98.2323 90.6116 97.8114C91.3386 97.3905 91.9221 96.7783 92.3621 95.9747C92.8213 95.152 93.0509 94.1955 93.0509 93.1049Z" fill="white"/>
<path d="M109.767 83.1181C109.174 83.1181 108.677 82.9172 108.275 82.5155C107.873 82.1137 107.672 81.6163 107.672 81.0232C107.672 80.4301 107.873 79.9327 108.275 79.5309C108.677 79.1291 109.174 78.9282 109.767 78.9282C110.341 78.9282 110.829 79.1291 111.231 79.5309C111.633 79.9327 111.834 80.4301 111.834 81.0232C111.834 81.6163 111.633 82.1137 111.231 82.5155C110.829 82.9172 110.341 83.1181 109.767 83.1181ZM111.374 85.2131V101.026H108.103V85.2131H111.374Z" fill="white"/>
<path d="M119.486 87.882V96.6348C119.486 97.2279 119.62 97.6583 119.888 97.9262C120.175 98.1749 120.653 98.2992 121.323 98.2992H123.332V101.026H120.749C119.276 101.026 118.147 100.681 117.363 99.9924C116.578 99.3037 116.186 98.1844 116.186 96.6348V87.882H114.321V85.2131H116.186V81.2815H119.486V85.2131H123.332V87.882H119.486Z" fill="white"/>
<path d="M140.431 87.882H137.504V101.026H134.204V87.882H132.338V85.2131H134.204V84.0938C134.204 82.2763 134.682 80.9562 135.639 80.1336C136.614 79.2918 138.135 78.8708 140.202 78.8708V81.5971C139.207 81.5971 138.508 81.7885 138.107 82.1711C137.705 82.5346 137.504 83.1755 137.504 84.0938V85.2131H140.431V87.882Z" fill="white"/>
<path d="M150.189 101.284C148.697 101.284 147.348 100.949 146.143 100.279C144.938 99.5906 143.991 98.634 143.302 97.4096C142.613 96.166 142.269 94.7311 142.269 93.1049C142.269 91.4979 142.623 90.0725 143.33 88.829C144.038 87.5854 145.005 86.6288 146.229 85.9592C147.453 85.2896 148.821 84.9548 150.333 84.9548C151.844 84.9548 153.212 85.2896 154.436 85.9592C155.661 86.6288 156.627 87.5854 157.335 88.829C158.043 90.0725 158.397 91.4979 158.397 93.1049C158.397 94.712 158.033 96.1373 157.306 97.3809C156.579 98.6245 155.584 99.5906 154.322 100.279C153.078 100.949 151.701 101.284 150.189 101.284ZM150.189 98.4427C151.031 98.4427 151.815 98.2418 152.542 97.8401C153.289 97.4383 153.891 96.8356 154.35 96.0321C154.81 95.2286 155.039 94.2529 155.039 93.1049C155.039 91.957 154.819 90.9909 154.379 90.2065C153.939 89.4029 153.356 88.8003 152.629 88.3985C151.902 87.9967 151.117 87.7959 150.275 87.7959C149.434 87.7959 148.649 87.9967 147.922 88.3985C147.214 88.8003 146.65 89.4029 146.229 90.2065C145.808 90.9909 145.598 91.957 145.598 93.1049C145.598 94.8077 146.028 96.1278 146.889 97.0652C147.769 97.9836 148.869 98.4427 150.189 98.4427Z" fill="white"/>
<path d="M164.902 87.5089C165.381 86.7053 166.012 86.0836 166.796 85.6435C167.6 85.1844 168.547 84.9548 169.638 84.9548V88.3411H168.805C167.523 88.3411 166.548 88.6664 165.878 89.3168C165.228 89.9673 164.902 91.0961 164.902 92.7032V101.026H161.631V85.2131H164.902V87.5089Z" fill="white"/>
<path d="M176.462 87.882V96.6348C176.462 97.2279 176.595 97.6583 176.863 97.9262C177.15 98.1749 177.629 98.2992 178.298 98.2992H180.307V101.026H177.724C176.251 101.026 175.122 100.681 174.338 99.9924C173.554 99.3037 173.161 98.1844 173.161 96.6348V87.882H171.296V85.2131H173.161V81.2815H176.462V85.2131H180.307V87.882H176.462Z" fill="white"/>
<path d="M191.501 84.9548C192.707 84.9548 193.778 85.2131 194.715 85.7296C195.672 86.2462 196.418 87.0114 196.954 88.0254C197.509 89.0394 197.786 90.2639 197.786 91.6987V101.026H194.543V92.1866C194.543 90.7709 194.189 89.6899 193.481 88.9438C192.773 88.1785 191.807 87.7959 190.583 87.7959C189.358 87.7959 188.383 88.1785 187.656 88.9438C186.948 89.6899 186.594 90.7709 186.594 92.1866V101.026H183.322V79.7892H186.594V87.0497C187.149 86.3801 187.847 85.8635 188.689 85.5C189.55 85.1365 190.487 84.9548 191.501 84.9548Z" fill="white"/>
<defs>
<linearGradient id="paint0_linear_1308_20" x1="-2.67828e-06" y1="48.4794" x2="216.979" y2="48.4794" gradientUnits="userSpaceOnUse">
<stop stop-color="#C79438"/>
<stop offset="0.29" stop-color="#D1A13D"/>
<stop offset="0.655" stop-color="#C58B18"/>
<stop offset="1" stop-color="#A2650D"/>
</linearGradient>
</defs>
</svg>
