<svg width="20" height="21" viewBox="0 0 20 21" fill="none" xmlns="http://www.w3.org/2000/svg">
<path d="M2.00293 6.384L9.99993 10.382L17.9969 6.384C17.9673 5.87444 17.744 5.39549 17.3728 5.04523C17.0015 4.69497 16.5103 4.49991 15.9999 4.5H3.99993C3.48951 4.49991 2.99838 4.69497 2.62711 5.04523C2.25584 5.39549 2.03253 5.87444 2.00293 6.384Z" fill="black"/>
<path d="M18 8.61816L10 12.6182L2 8.61816V14.5002C2 15.0306 2.21071 15.5393 2.58579 15.9144C2.96086 16.2895 3.46957 16.5002 4 16.5002H16C16.5304 16.5002 17.0391 16.2895 17.4142 15.9144C17.7893 15.5393 18 15.0306 18 14.5002V8.61816Z" fill="black"/>
</svg>
