<svg width="38" height="38" viewBox="0 0 38 38" fill="none" xmlns="http://www.w3.org/2000/svg">
<rect x="0.5" y="0.5" width="37" height="37" rx="18.5" fill="url(#paint0_linear_4079_15794)" fill-opacity="0.15"/>
<rect x="0.5" y="0.5" width="37" height="37" rx="18.5" stroke="#E7E5E4"/>
<path d="M20.4433 27.1415L20.895 26.3783L19.8193 25.7416L19.3675 26.5048L20.4433 27.1415ZM17.1047 26.3783L17.5564 27.1415L18.6321 26.5048L18.1803 25.7416L17.1047 26.3783ZM19.3675 26.5048C19.2069 26.7762 18.7928 26.7762 18.6321 26.5048L17.5564 27.1415C18.2011 28.2307 19.7986 28.2307 20.4433 27.1415L19.3675 26.5048ZM17.7498 11.2917H20.2498V10.0417H17.7498V11.2917ZM26.7082 17.7501V18.5834H27.9582V17.7501H26.7082ZM11.2915 18.5834V17.7501H10.0415V18.5834H11.2915ZM10.0415 18.5834C10.0415 19.5456 10.0412 20.2985 10.0826 20.9057C10.1244 21.5187 10.2109 22.0287 10.4062 22.5004L11.5611 22.0221C11.4393 21.7281 11.3672 21.3699 11.3297 20.8207C11.2918 20.2658 11.2915 19.5627 11.2915 18.5834H10.0415ZM15.5019 24.2014C14.4557 24.1833 13.9075 24.1168 13.4778 23.9388L12.9995 25.0937C13.6703 25.3715 14.4343 25.4332 15.4804 25.4512L15.5019 24.2014ZM10.4062 22.5004C10.8926 23.6745 11.8254 24.6073 12.9995 25.0937L13.4778 23.9388C12.61 23.5793 11.9206 22.8899 11.5611 22.0221L10.4062 22.5004ZM26.7082 18.5834C26.7082 19.5627 26.7078 20.2658 26.67 20.8207C26.6325 21.3699 26.5603 21.7281 26.4386 22.0221L27.5934 22.5004C27.7888 22.0287 27.8753 21.5187 27.9171 20.9057C27.9585 20.2985 27.9582 19.5456 27.9582 18.5834H26.7082ZM22.5193 25.4512C23.5653 25.4332 24.3294 25.3715 25.0002 25.0937L24.5218 23.9388C24.0922 24.1168 23.5439 24.1833 22.4978 24.2014L22.5193 25.4512ZM26.4386 22.0221C26.0791 22.8899 25.3897 23.5793 24.5218 23.9388L25.0002 25.0937C26.1743 24.6073 27.1071 23.6745 27.5934 22.5004L26.4386 22.0221ZM20.2498 11.2917C21.6258 11.2917 22.614 11.2924 23.3848 11.3657C24.1463 11.4381 24.6308 11.5769 25.017 11.8136L25.6702 10.7478C25.0544 10.3706 24.356 10.2024 23.5031 10.1213C22.6594 10.0411 21.6017 10.0417 20.2498 10.0417V11.2917ZM27.9582 17.7501C27.9582 16.3983 27.9588 15.3405 27.8786 14.4968C27.7975 13.6439 27.6293 12.9455 27.2521 12.3298L26.1863 12.9829C26.423 13.3692 26.5618 13.8537 26.6343 14.6152C26.7075 15.3859 26.7082 16.374 26.7082 17.7501H27.9582ZM25.017 11.8136C25.4936 12.1057 25.8943 12.5063 26.1863 12.9829L27.2521 12.3298C26.857 11.685 26.3149 11.1429 25.6702 10.7478L25.017 11.8136ZM17.7498 10.0417C16.398 10.0417 15.3403 10.0411 14.4966 10.1213C13.6436 10.2024 12.9452 10.3706 12.3295 10.7478L12.9827 11.8136C13.3689 11.5769 13.8535 11.4381 14.6149 11.3657C15.3857 11.2924 16.3738 11.2917 17.7498 11.2917V10.0417ZM11.2915 17.7501C11.2915 16.374 11.2922 15.3859 11.3654 14.6152C11.4378 13.8537 11.5767 13.3692 11.8134 12.9829L10.7476 12.3298C10.3703 12.9455 10.2022 13.6439 10.1211 14.4968C10.0408 15.3405 10.0415 16.3983 10.0415 17.7501H11.2915ZM12.3295 10.7478C11.6848 11.1429 11.1427 11.685 10.7476 12.3298L11.8134 12.9829C12.1054 12.5063 12.5061 12.1057 12.9827 11.8136L12.3295 10.7478ZM18.1803 25.7416C18.0112 25.4557 17.8627 25.2035 17.7183 25.0053C17.5661 24.7967 17.3917 24.6087 17.1497 24.468L16.5213 25.5486C16.5608 25.5715 16.6146 25.6134 16.708 25.7416C16.8092 25.8804 16.9235 26.0722 17.1047 26.3783L18.1803 25.7416ZM15.4804 25.4512C15.8463 25.4575 16.0781 25.4622 16.2547 25.4817C16.4198 25.5 16.4838 25.5267 16.5213 25.5486L17.1497 24.468C16.9058 24.3261 16.6519 24.268 16.3923 24.2392C16.1443 24.2118 15.8446 24.2073 15.5019 24.2014L15.4804 25.4512ZM20.895 26.3783C21.0762 26.0722 21.1904 25.8804 21.2916 25.7416C21.385 25.6134 21.4388 25.5715 21.4783 25.5486L20.8499 24.468C20.608 24.6087 20.4335 24.7967 20.2814 25.0053C20.137 25.2035 19.9885 25.4557 19.8193 25.7416L20.895 26.3783ZM22.4978 24.2014C22.155 24.2073 21.8553 24.2118 21.6073 24.2392C21.3478 24.268 21.0939 24.3261 20.8499 24.468L21.4783 25.5486C21.5158 25.5267 21.5798 25.5 21.7449 25.4817C21.9216 25.4622 22.1533 25.4575 22.5193 25.4512L22.4978 24.2014Z" fill="#2D2D2D"/>
<path opacity="0.5" d="M15.6665 18.1667H15.674M18.9923 18.1667H18.9998M22.3257 18.1667H22.3332" stroke="#2D2D2D" stroke-width="2" stroke-linecap="round" stroke-linejoin="round"/>
<defs>
<linearGradient id="paint0_linear_4079_15794" x1="16.8286" y1="18.933" x2="0.134083" y2="18.933" gradientUnits="userSpaceOnUse">
<stop stop-color="white" stop-opacity="0"/>
<stop offset="1" stop-color="white"/>
</linearGradient>
</defs>
</svg>
