<svg width="38" height="38" viewBox="0 0 38 38" fill="none" xmlns="http://www.w3.org/2000/svg">
<rect x="0.5" y="0.5" width="37" height="37" rx="18.5" fill="url(#paint0_linear_4079_15786)" fill-opacity="0.15"/>
<rect x="0.5" y="0.5" width="37" height="37" rx="18.5" stroke="#E7E5E4"/>
<path d="M24.6243 17.0914V16.5042C24.6243 13.2803 22.1062 10.6667 19 10.6667C15.8938 10.6667 13.3757 13.2803 13.3757 16.5042V17.0914C13.3757 17.7961 13.1748 18.4849 12.7982 19.0712L11.8753 20.508C11.0324 21.8203 11.6759 23.6042 13.142 24.0192C16.9773 25.1048 21.0227 25.1048 24.858 24.0192C26.3242 23.6042 26.9677 21.8203 26.1247 20.508L25.2018 19.0712C24.8252 18.4849 24.6243 17.7961 24.6243 17.0914Z" stroke="#2D2D2D" stroke-width="1.5"/>
<path opacity="0.5" d="M15.25 24.8335C15.7959 26.29 17.2687 27.3335 19 27.3335C20.7312 27.3335 22.2042 26.29 22.75 24.8335" stroke="#2D2D2D" stroke-width="1.5" stroke-linecap="round"/>
<defs>
<linearGradient id="paint0_linear_4079_15786" x1="16.8286" y1="18.933" x2="0.134083" y2="18.933" gradientUnits="userSpaceOnUse">
<stop stop-color="white" stop-opacity="0"/>
<stop offset="1" stop-color="white"/>
</linearGradient>
</defs>
</svg>
