<svg width="38" height="38" viewBox="0 0 38 38" fill="none" xmlns="http://www.w3.org/2000/svg">
<rect x="0.5" y="0.5" width="37" height="37" rx="18.5" fill="url(#paint0_linear_4079_15783)" fill-opacity="0.15"/>
<rect x="0.5" y="0.5" width="37" height="37" rx="18.5" stroke="#E7E5E4"/>
<path d="M24.6293 25.6666L19.9626 20.9999C19.5923 21.2962 19.1663 21.5308 18.6849 21.7036C18.2034 21.8765 17.691 21.9629 17.1478 21.9629C15.8021 21.9629 14.6633 21.4968 13.7312 20.5647C12.7991 19.6326 12.333 18.4937 12.333 17.1481C12.333 15.8024 12.7991 14.6635 13.7312 13.7314C14.6633 12.7993 15.8021 12.3333 17.1478 12.3333C18.4935 12.3333 19.6324 12.7993 20.5645 13.7314C21.4966 14.6635 21.9626 15.8024 21.9626 17.1481C21.9626 17.6913 21.8762 18.2036 21.7034 18.6851C21.5305 19.1666 21.296 19.5925 20.9997 19.9629L25.6663 24.6295L24.6293 25.6666ZM17.1478 20.4814C18.0737 20.4814 18.8608 20.1573 19.5089 19.5092C20.1571 18.861 20.4812 18.074 20.4812 17.1481C20.4812 16.2221 20.1571 15.4351 19.5089 14.787C18.8608 14.1388 18.0737 13.8147 17.1478 13.8147C16.2219 13.8147 15.4349 14.1388 14.7867 14.787C14.1386 15.4351 13.8145 16.2221 13.8145 17.1481C13.8145 18.074 14.1386 18.861 14.7867 19.5092C15.4349 20.1573 16.2219 20.4814 17.1478 20.4814Z" fill="#2D2D2D"/>
<defs>
<linearGradient id="paint0_linear_4079_15783" x1="16.8286" y1="18.933" x2="0.134083" y2="18.933" gradientUnits="userSpaceOnUse">
<stop stop-color="white" stop-opacity="0"/>
<stop offset="1" stop-color="white"/>
</linearGradient>
</defs>
</svg>
