<svg width="25" height="24" viewBox="0 0 25 24" fill="none" xmlns="http://www.w3.org/2000/svg">
<g clip-path="url(#clip0_4167_18974)">
<path d="M22.5775 10.1452L22.4005 9.43664L21.7413 9.97004C21.5046 9.31226 21.2573 8.91582 21.1436 8.75417L21.0174 8.57436L20.7989 8.55759C20.6526 8.54687 20.3316 8.53755 19.8718 8.59532L20.1625 7.70602L19.3496 7.904C19.1232 7.95897 18.8735 8.03025 18.6061 8.11876C18.6061 8.11736 18.6066 8.11643 18.6066 8.11503C18.71 2.76244 16.4563 0.386621 16.1991 0.1332C16.1944 0.128541 16.1879 0.127609 16.1828 0.123417C16.1772 0.118292 16.1749 0.111305 16.1693 0.106646C16.1385 0.0810247 16.1027 0.0689126 16.0682 0.0526079C16.051 0.0446885 16.037 0.0321107 16.0188 0.0260546C15.9564 0.0050915 15.8912 -0.00422545 15.8269 0.00229642C15.826 0.00229642 15.8255 0.00183057 15.8246 0.00183057C15.4654 0.0386325 12.2198 0.484449 8.93235 4.75487C8.74601 5.0423 8.57271 5.34091 8.40547 5.64511C6.91336 4.57506 5.77111 4.29974 5.43476 4.24104C5.29827 4.21682 5.15758 4.25549 5.0523 4.34586C4.88134 4.49214 3.88023 5.40706 3.0841 7.3762C3.07338 7.39809 3.06546 7.41952 3.05801 7.44328C2.5875 8.62793 2.19293 10.1843 2.09277 12.1782C2.12911 13.3358 2.30986 14.5134 2.6299 15.6771C2.94854 16.8413 3.39435 17.9458 3.97433 18.994C5.31551 21.0125 6.53836 21.5151 7.53527 21.5151C8.12923 21.5151 8.64259 21.3367 9.053 21.1946C9.26916 21.1196 10.2055 20.8569 10.3574 20.822C10.8214 21.7653 11.6226 22.1552 12.2054 22.4375C12.4113 22.5372 13.4054 23.1032 13.5959 23.229C14.0935 23.5579 14.7629 24.0004 15.6881 24.0004C16.5671 24.0004 17.6768 23.6012 19.0883 22.3238C19.8816 21.4793 20.5865 20.5192 21.1827 19.4696C21.7809 18.4205 22.2467 17.3244 22.577 16.1737C23.1332 13.4168 22.884 11.3741 22.5775 10.1452ZM19.5453 9.5927C19.9692 9.50559 20.2939 9.48369 20.5012 9.4809C20.6233 9.69286 20.8035 10.0585 20.9685 10.5952L18.5875 12.5219L19.5453 9.5927ZM14.714 1.24751C14.3436 1.80187 13.9742 2.43123 13.5764 3.1859C13.4567 3.4137 13.5438 3.69507 13.7711 3.81526C13.8405 3.85159 13.9146 3.86883 13.9877 3.86883C14.155 3.86883 14.3171 3.77846 14.4005 3.62007C14.9269 2.62083 15.3988 1.85357 15.8884 1.19999C16.5205 2.03479 17.7513 4.16604 17.6768 8.05866C17.6619 8.20447 17.6432 8.35075 17.6227 8.49609C17.6106 8.50169 17.5985 8.50774 17.5859 8.51333C17.4625 8.5683 17.3358 8.62746 17.2072 8.69035C17.1229 8.73135 17.039 8.77421 16.9552 8.81753C16.9063 8.84268 16.8573 8.86831 16.808 8.89439C16.3337 9.14595 15.8618 9.43431 15.3937 9.75901C15.3629 9.77997 15.3326 9.8014 15.3019 9.82283C15.1943 9.8983 15.0871 9.97563 14.98 10.0553C14.9353 10.0884 14.8905 10.1228 14.8454 10.1568C14.7466 10.2318 14.6478 10.3073 14.5491 10.3856C14.4857 10.4359 14.4219 10.489 14.3581 10.5412C14.2752 10.6092 14.1918 10.6758 14.1088 10.7461C13.9602 10.8724 13.8102 11.0028 13.6593 11.1393C13.4609 11.3503 13.2685 11.5684 13.0817 11.7938C12.6959 12.2587 12.3358 12.7535 12.0023 13.2734L12.0009 13.2748C11.849 13.5105 11.7037 13.7504 11.5649 13.9936C11.5462 14.0266 11.5294 14.062 11.5108 14.0951C11.352 14.3784 11.2043 14.6658 11.065 14.956C11.0622 14.9616 11.0585 14.9695 11.0538 14.9798L11.0436 15.0021C11.0389 15.0119 11.0347 15.0222 11.0296 15.0324H11.0291L11.0287 15.0343C11.0124 15.0683 10.9974 15.1027 10.9816 15.1368C11.3492 12.1409 12.0214 9.32856 12.9903 6.76873C13.0817 6.52789 12.9605 6.2591 12.7197 6.16779C12.4788 6.07695 12.21 6.19807 12.1192 6.43845C11.0929 9.14921 10.3918 12.132 10.0238 15.3091C9.93998 15.2835 9.85985 15.2574 9.76994 15.2323C8.74461 14.9476 7.46912 14.5926 7.52782 11.485C7.63729 10.4061 7.88372 9.31645 8.2606 8.2464C8.45718 7.68459 8.70036 7.11439 8.98219 6.55165C8.98359 6.54932 8.98312 6.54652 8.98452 6.54419C9.20394 6.10676 9.43872 5.68564 9.69261 5.29246C11.644 2.75872 13.5312 1.69472 14.714 1.24751ZM10.0704 19.9308C9.89246 19.975 9.05021 20.2089 8.74787 20.3137C7.74211 20.6636 6.49177 21.0987 4.77093 18.5104C4.24592 17.5596 3.82806 16.5236 3.52898 15.4302C3.22804 14.3369 3.05848 13.2328 3.024 12.187C3.11205 10.4513 3.43255 9.08725 3.82107 8.03164C4.5217 7.9995 5.21954 7.90261 5.89921 7.7349C6.14891 7.67341 6.30171 7.42092 6.23975 7.17122C6.17826 6.92106 5.9239 6.7678 5.67607 6.83069C5.20184 6.94762 4.71736 7.02541 4.22962 7.0706C4.71969 6.07089 5.22886 5.47507 5.49439 5.20768C5.91785 5.31715 6.83044 5.63206 7.98062 6.4813C7.96665 6.51065 7.955 6.54047 7.94149 6.57028C7.84785 6.77339 7.75515 6.97697 7.6699 7.18567C7.56602 7.43722 7.46912 7.68832 7.38154 7.93801C6.98091 9.07701 6.71817 10.2388 6.59845 11.4295C6.52345 15.297 8.39988 15.8188 9.52071 16.1304C9.74106 16.1919 10.3974 16.4709 10.4133 16.4709C10.417 16.4709 10.4305 16.4705 10.4333 16.47C10.4245 16.4956 10.417 16.5222 10.4082 16.5478C10.3206 16.7942 10.2446 17.0272 10.1799 17.2526C10.1766 17.2647 10.1734 17.2773 10.1706 17.2899C10.1203 17.5396 10.0821 17.7753 10.0527 18.0003C10.0425 18.0776 10.0383 18.1494 10.0308 18.2244C10.0154 18.3721 10.001 18.5188 9.99448 18.6558C9.99075 18.7289 9.99122 18.7988 9.99029 18.8701C9.98796 19.0117 9.98889 19.1486 9.99541 19.2786C9.99821 19.3294 10.0015 19.3802 10.0057 19.43C10.0192 19.6019 10.0401 19.764 10.0685 19.9159C10.069 19.9205 10.0695 19.9261 10.0704 19.9308ZM21.6728 15.9529C21.3723 16.9955 20.9354 18.0231 20.3736 19.0089C19.8131 19.9946 19.1521 20.8956 18.4366 21.6591C16.1031 23.7694 14.9981 23.0385 14.1098 22.4515C13.8428 22.2749 12.9 21.7383 12.6116 21.5985C12.0437 21.3232 11.3962 21.0041 11.0888 20.1577C11.0864 20.1493 11.0888 20.1409 11.0855 20.1325C10.8619 19.4826 10.86 18.5957 11.0794 17.4963C11.1372 17.2974 11.2034 17.0989 11.2709 16.9014C11.3338 16.722 11.4023 16.5362 11.4819 16.3326C11.6058 16.0158 11.7405 15.7074 11.8821 15.4069C11.8923 15.3846 11.9059 15.3552 11.9068 15.3538C11.9068 15.3538 11.9068 15.3524 11.9072 15.3515L11.9077 15.351C12.0545 15.0427 12.2101 14.7431 12.3736 14.4561L12.3745 14.4552C12.5049 14.226 12.6424 14.001 12.7844 13.7793C12.9293 13.5533 13.0798 13.3344 13.234 13.1206C13.2354 13.1187 13.2372 13.1173 13.2382 13.1154C13.2391 13.114 13.2391 13.1131 13.24 13.1117C13.5782 12.6445 13.9365 12.2052 14.311 11.805C14.5043 11.6303 14.6949 11.4677 14.884 11.3117C14.9395 11.266 14.9949 11.2222 15.0503 11.1775C15.1891 11.0662 15.3261 10.959 15.4621 10.857C15.5185 10.8146 15.5749 10.7722 15.6312 10.7312C15.7756 10.6259 15.9177 10.5267 16.0584 10.4322C16.1003 10.4037 16.1423 10.3739 16.1842 10.346C16.5555 10.1009 16.9137 9.89038 17.2547 9.70963C17.3241 9.67283 17.3935 9.64022 17.4634 9.60528C17.5608 9.55636 17.6591 9.50559 17.7536 9.46133C17.871 9.40636 17.9884 9.35558 18.1063 9.30574C18.3271 9.21164 18.5414 9.12545 18.7412 9.05558L16.7227 15.2304L21.8251 11.1006C22.0171 12.2518 22.0879 13.8883 21.6728 15.9529Z" fill="url(#paint0_linear_4167_18974)"/>
<path d="M15.6769 11.9411C15.5325 12.0277 12.1379 14.1166 11.9264 18.3343C11.9133 18.5915 12.1113 18.81 12.368 18.823C12.3759 18.8235 12.3839 18.8235 12.3918 18.8235C12.6382 18.8235 12.8441 18.6302 12.8567 18.3809C13.043 14.6705 16.1269 12.7581 16.1577 12.739C16.3776 12.6063 16.4479 12.3198 16.3151 12.0999C16.1828 11.8796 15.8968 11.8078 15.6769 11.9411Z" fill="url(#paint1_linear_4167_18974)"/>
</g>
<defs>
<linearGradient id="paint0_linear_4167_18974" x1="2.09277" y1="10.6912" x2="22.9073" y2="10.6912" gradientUnits="userSpaceOnUse">
<stop stop-color="#C79438"/>
<stop offset="0.29" stop-color="#D1A13D"/>
<stop offset="0.655" stop-color="#C58B18"/>
<stop offset="1" stop-color="#A2650D"/>
</linearGradient>
<linearGradient id="paint1_linear_4167_18974" x1="11.9258" y1="14.9697" x2="16.3822" y2="14.9697" gradientUnits="userSpaceOnUse">
<stop stop-color="#C79438"/>
<stop offset="0.29" stop-color="#D1A13D"/>
<stop offset="0.655" stop-color="#C58B18"/>
<stop offset="1" stop-color="#A2650D"/>
</linearGradient>
<clipPath id="clip0_4167_18974">
<rect width="24" height="24" fill="white" transform="translate(0.5)"/>
</clipPath>
</defs>
</svg>
