<svg width="62" height="62" viewBox="0 0 62 62" fill="none" xmlns="http://www.w3.org/2000/svg">
<path d="M24.5421 28.8471L28.8477 33.1527L38.5352 23.4652M20.9551 11.2346C22.6855 11.0965 24.3284 10.416 25.6496 9.29003C28.733 6.66244 33.2679 6.66244 36.3512 9.29003C37.6725 10.416 39.3153 11.0965 41.0458 11.2346C45.084 11.5568 48.2907 14.7635 48.613 18.8018C48.7511 20.5322 49.4315 22.175 50.5575 23.4963C53.1851 26.5796 53.1851 31.1146 50.5575 34.1979C49.4315 35.5192 48.7511 37.162 48.613 38.8925C48.2907 42.9307 45.084 46.1374 41.0458 46.4596C39.3153 46.5977 37.6725 47.2782 36.3512 48.4042C33.2679 51.0318 28.733 51.0318 25.6496 48.4042C24.3284 47.2782 22.6855 46.5977 20.9551 46.4596C16.9168 46.1374 13.7102 42.9307 13.3879 38.8925C13.2498 37.162 12.5693 35.5192 11.4434 34.1979C8.81576 31.1146 8.81576 26.5796 11.4434 23.4963C12.5693 22.175 13.2498 20.5322 13.3879 18.8018C13.7102 14.7635 16.9168 11.5568 20.9551 11.2346Z" stroke="url(#paint0_linear_2390_3407)" stroke-width="3.44444" stroke-linecap="round" stroke-linejoin="round"/>
<defs>
<linearGradient id="paint0_linear_2390_3407" x1="9.47266" y1="26.4986" x2="52.5282" y2="26.4986" gradientUnits="userSpaceOnUse">
<stop stop-color="#C79438"/>
<stop offset="0.29" stop-color="#D1A13D"/>
<stop offset="0.655" stop-color="#C58B18"/>
<stop offset="1" stop-color="#A2650D"/>
</linearGradient>
</defs>
</svg>
