<svg width="14" height="14" viewBox="0 0 14 14" fill="none" xmlns="http://www.w3.org/2000/svg">
<g clip-path="url(#clip0_1099_85756)">
<path fill-rule="evenodd" clip-rule="evenodd" d="M5.69635 0.624855L5.10398 1.05973C4.99961 1.14299 4.88904 1.21817 4.77323 1.2846C4.69524 1.32606 4.6135 1.36005 4.5291 1.3861C4.43373 1.41498 4.33486 1.42985 4.13623 1.46048L3.40998 1.5716C2.83685 1.6591 2.54985 1.70373 2.32498 1.8376C2.12373 1.95573 1.9566 2.12373 1.8376 2.32498C1.70373 2.55248 1.65998 2.83948 1.5716 3.40998L1.46048 4.13623C1.42985 4.33486 1.41498 4.43461 1.3861 4.52998C1.35985 4.61456 1.32602 4.69565 1.2846 4.77323C1.23735 4.86073 1.17873 4.94211 1.05973 5.10398L0.624855 5.69636C0.281855 6.16361 0.110355 6.39723 0.0438545 6.6501C-0.0134789 6.87607 -0.0134789 7.11277 0.0438545 7.33873C0.10948 7.59423 0.281855 7.82873 0.624855 8.29248L1.05973 8.88486C1.17873 9.04673 1.23823 9.1281 1.2846 9.2156C1.32544 9.29377 1.35927 9.37544 1.3861 9.46061C1.41498 9.55511 1.42985 9.65398 1.46048 9.8526L1.5716 10.5789C1.6591 11.152 1.70373 11.4381 1.8376 11.6639C1.95573 11.8651 2.12373 12.0322 2.32498 12.1512C2.55248 12.2851 2.83948 12.3289 3.40998 12.4172L4.13623 12.5284C4.33486 12.559 4.4346 12.5747 4.5291 12.6036C4.61369 12.6293 4.69506 12.6631 4.77323 12.7051C4.86073 12.7515 4.9421 12.8101 5.10398 12.93L5.69635 13.3649C6.1636 13.7079 6.39723 13.8794 6.6501 13.9459C6.87585 14.0045 7.11298 14.0045 7.33873 13.9459C7.59423 13.8794 7.82873 13.7079 8.29248 13.3649L8.88485 12.93C9.04673 12.811 9.1281 12.7515 9.2156 12.7051C9.29377 12.6631 9.37515 12.6293 9.45973 12.6036C9.5551 12.5747 9.65398 12.5599 9.8526 12.5284L10.5789 12.4172C11.152 12.3297 11.4381 12.286 11.6639 12.1512C11.8651 12.0331 12.0331 11.8651 12.1512 11.6639C12.2851 11.4364 12.3289 11.1494 12.4172 10.5789L12.5284 9.8526C12.559 9.65398 12.5739 9.55511 12.6027 9.45973C12.629 9.37515 12.6628 9.29377 12.7042 9.2156C12.7515 9.1281 12.8101 9.04673 12.9291 8.88486L13.364 8.29248C13.707 7.82523 13.8785 7.59248 13.945 7.33873C14.0023 7.11277 14.0023 6.87607 13.945 6.6501C13.8794 6.39461 13.707 6.16011 13.364 5.69636L12.9291 5.10398C12.8458 4.99961 12.7707 4.88904 12.7042 4.77323C12.6628 4.69524 12.6288 4.6135 12.6027 4.52911C12.568 4.40023 12.5431 4.26889 12.5284 4.13623L12.4172 3.40998C12.3297 2.83685 12.2851 2.54985 12.1512 2.32498C12.0319 2.12444 11.8644 1.95691 11.6639 1.8376C11.4364 1.70373 11.1494 1.65998 10.5789 1.5716L9.8526 1.46048C9.71995 1.44571 9.58861 1.42085 9.45973 1.3861C9.37514 1.36057 9.29335 1.32657 9.2156 1.2846C9.0998 1.21817 8.98923 1.14299 8.88485 1.05973L8.29248 0.624855C7.82523 0.281855 7.5916 0.110355 7.33873 0.0438545C7.11277 -0.0134789 6.87607 -0.0134789 6.6501 0.0438545C6.3946 0.110355 6.1601 0.281855 5.69635 0.624855ZM10.3601 5.35861C10.4107 5.29683 10.4485 5.22554 10.4711 5.14893C10.4937 5.07232 10.5007 4.99196 10.4918 4.91259C10.4828 4.83322 10.458 4.75646 10.4189 4.68683C10.3797 4.61721 10.327 4.55614 10.2639 4.50723C10.1354 4.40673 9.97278 4.36037 9.81064 4.37803C9.64851 4.39568 9.49967 4.47595 9.39585 4.60173L6.4996 8.15423L4.95085 6.96423C4.82434 6.86126 4.66261 6.81178 4.50015 6.82633C4.33768 6.84088 4.18731 6.9183 4.0811 7.04211C4.02922 7.10282 3.99002 7.17333 3.96585 7.24945C3.94167 7.32557 3.93299 7.40577 3.94033 7.4853C3.94767 7.56483 3.97088 7.64208 4.00859 7.71249C4.04629 7.7829 4.09773 7.84504 4.15985 7.89523L6.18985 9.47898C6.31804 9.58325 6.48228 9.63258 6.64671 9.61618C6.81114 9.59979 6.9624 9.51901 7.06748 9.39148L10.3575 5.34898L10.3601 5.35861Z" fill="url(#paint0_linear_1099_85756)"/>
</g>
<defs>
<linearGradient id="paint0_linear_1099_85756" x1="0.00085432" y1="6.2323" x2="13.988" y2="6.2323" gradientUnits="userSpaceOnUse">
<stop stop-color="#C79438"/>
<stop offset="0.29" stop-color="#D1A13D"/>
<stop offset="0.655" stop-color="#C58B18"/>
<stop offset="1" stop-color="#A2650D"/>
</linearGradient>
<clipPath id="clip0_1099_85756">
<rect width="14" height="14" fill="white"/>
</clipPath>
</defs>
</svg>
