<svg width="19" height="19" viewBox="0 0 19 19" fill="none" xmlns="http://www.w3.org/2000/svg">
<path d="M16.3245 15.4142C19.8542 11.8845 19.8542 6.17698 16.3245 2.64728C12.7948 -0.882426 7.08737 -0.882426 3.55766 2.64728C0.800298 5.40464 0.139082 9.67856 1.90324 13.1534C1.26883 15.0286 0.303751 17.9788 0.303751 18.0069L0 19L5.7356 17.0418C9.21043 18.8611 13.5393 18.1995 16.3245 15.4142ZM5.76356 5.54361L6.53584 4.77133C6.81157 4.49559 7.25319 4.49559 7.52893 4.77133L8.52202 5.76442C8.79776 6.04016 8.79776 6.48178 8.52202 6.75752L7.91562 7.36392C7.91562 7.36392 7.74975 8.24605 9.12842 9.62473L9.26629 9.7626C10.645 11.1693 11.5271 10.9754 11.5271 10.9754L12.1335 10.369C12.4092 10.0933 12.8509 10.0933 13.1266 10.369L14.1197 11.3621C14.3954 11.6378 14.3954 12.0795 14.1197 12.3552L13.3463 13.1264C13.0706 13.4021 12.685 13.54 12.2714 13.4851C11.3613 13.3472 9.59698 12.8787 7.91449 11.1693L7.69369 10.9485C5.98434 9.26609 5.51581 7.50182 5.37794 6.59161C5.34994 6.23293 5.45983 5.81935 5.76356 5.54361Z" fill="black"/>
</svg>
